<?xml version="1.0" encoding="UTF-8"?> <svg xmlns="http://www.w3.org/2000/svg" width="155" height="155" viewBox="0 0 155 155" fill="none"><g clip-path="url(#clip0_1342_181)"><path d="M16.5351 45.9141C16.1218 46.7413 15.7084 47.3618 15.1918 48.0856L7.64844 44.0529C7.95844 43.2257 8.26844 42.6053 8.68177 41.8814C10.3351 38.8828 12.8151 38.2624 14.9851 39.3998C17.0518 40.4338 18.0851 42.8121 16.5351 45.9141ZM9.92177 42.1916C9.7151 42.6053 9.61177 42.9155 9.4051 43.2257L14.7784 46.1209C14.9851 45.8107 15.1918 45.6039 15.3984 45.0869C16.4318 43.1223 15.7084 41.5712 14.1584 40.744C12.6084 39.8134 10.9551 40.3304 9.92177 42.1916Z" fill="black"></path><path d="M23.5582 35.0534C22.2148 36.8113 20.4582 37.0181 18.7015 35.5704L14.4648 32.2616L15.3948 31.1241L19.5282 34.433C20.6648 35.3636 21.6982 35.2602 22.5248 34.2262C23.2482 33.2956 23.1448 32.1582 22.0082 31.2275L17.8748 27.9187L18.8048 26.7812L23.0415 30.0901C24.6948 31.5378 24.9015 33.399 23.5582 35.0534Z" fill="black"></path><path d="M30.7951 27.1958C30.2784 27.7128 29.5551 28.2299 28.9351 28.6435L23.1484 22.3359C23.5618 21.8189 24.1818 21.1985 24.6984 20.6815C26.3518 19.1305 28.0051 19.2339 28.7284 20.0611C29.3484 20.7849 29.4518 21.5087 28.9351 22.5427C30.0718 21.9223 31.0018 22.2325 31.6218 22.8529C32.5518 23.887 32.5518 25.5414 30.7951 27.1958ZM25.7318 21.4053C25.4218 21.6121 25.2151 21.9223 25.0084 22.1291L26.6618 23.887C26.8684 23.7836 27.0751 23.5768 27.3851 23.37C28.3151 22.5427 28.3151 21.7155 27.7984 21.1985C27.2818 20.7849 26.5584 20.6815 25.7318 21.4053ZM28.1084 24.1972C27.9018 24.404 27.5918 24.7142 27.4884 24.8176L29.2451 26.7822C29.4518 26.5754 29.7618 26.3686 30.0718 26.1618C30.8984 25.3346 31.0018 24.5074 30.4851 23.9904C29.8651 23.2666 29.0384 23.37 28.1084 24.1972Z" fill="black"></path><path d="M41.5402 18.8216L39.7835 17.5807L36.8902 19.442L37.2002 21.7168L35.9602 22.544L34.4102 12.9276L34.6168 12.8242L42.8835 17.9943L41.5402 18.8216ZM35.9602 15.2025L36.5802 18.3045L38.6468 16.9603L35.9602 15.2025Z" fill="black"></path><path d="M46.4991 16.1313L42.6758 8.27276L44.0191 7.65234L47.8424 15.5109L46.4991 16.1313Z" fill="black"></path><path d="M50.735 8.48097L50.0117 8.27417L50.3217 5.37891L51.5617 5.68911L50.735 8.48097Z" fill="black"></path><path d="M60.4517 11.0639C59.5217 11.2707 58.4883 11.1673 57.5583 10.9605L57.765 9.51288C58.5917 9.82309 59.4183 9.92649 60.1417 9.71969C61.0717 9.51288 61.2783 8.89247 61.175 8.27205C61.0717 7.65164 60.6583 7.34143 59.2117 7.13463C57.5583 6.92782 56.835 6.30741 56.6283 5.27339C56.3183 4.03256 57.0417 2.68833 58.7983 2.17132C59.5217 1.96452 60.4517 2.06792 60.9683 2.27472L60.865 3.61895C60.3483 3.41215 59.625 3.30874 59.005 3.41215C58.075 3.61895 57.8683 4.23937 57.9717 4.75638C58.075 5.27339 58.5917 5.58359 59.8317 5.7904C61.6917 6.10061 62.3117 6.61762 62.6217 7.75504C62.9317 9.20267 62.2083 10.5469 60.4517 11.0639Z" fill="black"></path><path d="M75.3298 5.99902C75.0198 5.99902 74.7098 5.99902 74.5031 5.99902L74.6065 8.79088H73.1598L72.9531 0.208496C73.5731 0.105093 74.2965 0.00169102 75.0198 0.00169102C77.3965 -0.101711 78.6365 1.24252 78.7398 2.79355C78.7398 4.65479 77.4998 5.89562 75.3298 5.99902ZM75.3298 1.34592C75.0198 1.34592 74.7098 1.34592 74.3998 1.44932V4.65479C74.7098 4.65479 75.0198 4.65479 75.2265 4.65479C76.5698 4.65479 77.1898 3.93098 77.1898 2.89695C77.0865 2.06974 76.4665 1.34592 75.3298 1.34592Z" fill="black"></path><path d="M87.7281 9.51346L86.1781 6.20459C85.9715 6.20459 85.8681 6.20459 85.7648 6.20459C85.4548 6.20459 85.1448 6.10119 84.9381 6.10119L84.5248 9.20326L83.0781 8.99645L84.1115 0.414062C84.8348 0.414062 85.5581 0.414062 86.3848 0.517465C88.8648 0.827672 89.7948 2.0685 89.6915 3.61953C89.5881 4.75696 88.8648 5.58418 87.7281 5.89438L89.5881 9.61687L87.7281 9.51346ZM86.4881 1.86169C86.1781 1.86169 85.7648 1.75829 85.4548 1.75829L85.0415 4.75696C85.3515 4.86036 85.5581 4.86036 85.8681 4.86036C87.1081 5.06716 87.8315 4.44675 88.0381 3.51613C88.1415 2.68891 87.6248 1.9651 86.4881 1.86169Z" fill="black"></path><path d="M93.5156 10.6529L95.8923 2.27734L100.956 3.72498L100.542 5.06921L96.8223 4.03518L96.2023 6.20663L99.509 7.13725L99.3023 8.27468L95.9956 7.34405L95.3756 9.61891L99.0956 10.6529L98.6823 11.9972L93.5156 10.6529Z" fill="black"></path><path d="M109.535 16.65L111.705 11.8935L107.469 14.4785L107.262 14.3751L106.539 9.41182L104.265 14.0649L102.922 13.4445L107.055 5.58594L107.262 5.68934L108.295 12.5139L114.185 8.89481L114.392 8.99821L110.982 17.167L109.535 16.65Z" fill="black"></path><path d="M115.012 19.9569L119.868 12.7188L121.108 13.546L116.252 20.7841L115.012 19.9569Z" fill="black"></path><path d="M120.383 23.7857L126.066 17.168L130.096 20.6836L129.166 21.7177L126.273 19.236L124.826 20.9939L127.409 23.2687L126.583 24.3027L123.999 22.0279L122.449 23.8891L125.343 26.3708L124.413 27.4048L120.383 23.7857Z" fill="black"></path><path d="M130.821 34.1247L131.958 30.609C131.854 30.5056 131.751 30.4022 131.648 30.2988C131.441 30.092 131.234 29.8852 131.131 29.575L128.754 31.643L127.824 30.5056L134.334 24.9219C134.851 25.4389 135.368 25.8525 135.884 26.5763C137.538 28.4376 137.331 30.092 136.091 31.0226C135.264 31.7464 134.128 31.8498 133.094 31.3328L131.958 35.3655L130.821 34.1247ZM135.058 27.6103C134.851 27.3001 134.541 27.0933 134.334 26.8865L132.061 28.8512C132.164 29.058 132.371 29.2648 132.578 29.575C133.404 30.609 134.334 30.7124 135.058 29.9886C135.781 29.3682 135.781 28.4376 135.058 27.6103Z" fill="black"></path><path d="M139.811 48.4989L141.154 46.8445L139.604 43.7424L137.434 43.9492L136.711 42.605L146.424 42.1914L146.528 42.3982L140.534 49.9466L139.811 48.4989ZM144.048 43.4322L140.844 43.639L141.981 45.8105L144.048 43.4322Z" fill="black"></path><path d="M141.98 53.6689L150.247 50.9805L151.9 56.0472L150.66 56.4608L149.42 52.8417L147.25 53.5655L148.284 56.8744L147.044 57.288L146.01 53.9791L143.737 54.703L144.977 58.322L143.737 58.7356L141.98 53.6689Z" fill="black"></path><path d="M144.976 65.4572C144.769 64.5266 144.976 63.4925 145.389 62.6653L146.836 62.9755C146.422 63.6993 146.319 64.63 146.422 65.3538C146.629 66.2844 147.146 66.5946 147.766 66.4912C148.386 66.3878 148.696 66.0776 149.006 64.63C149.419 62.9755 150.039 62.3551 151.072 62.1483C152.312 61.9415 153.656 62.7687 153.966 64.5266C154.069 65.3538 153.966 66.181 153.759 66.8014L152.416 66.5946C152.622 66.0776 152.829 65.3538 152.726 64.7334C152.519 63.8027 152.002 63.4925 151.382 63.5959C150.762 63.6993 150.556 64.2164 150.246 65.3538C149.832 67.215 149.212 67.8354 148.076 68.0422C146.629 68.0422 145.286 67.215 144.976 65.4572Z" fill="black"></path><path d="M153.552 76.1067L146.215 76.3135V74.8659L153.552 74.659L153.448 71.8672H154.792L154.998 78.8985H153.655L153.552 76.1067Z" fill="black"></path><path d="M145.285 88.7207L149.005 89.2377L149.521 85.3084L145.801 84.7914L146.008 83.3438L154.688 84.4812L154.481 85.9288L150.865 85.4118L150.348 89.3411L153.965 89.9615L153.758 91.4091L145.078 90.2717L145.285 88.7207Z" fill="black"></path><path d="M143.945 95.0273L152.315 97.6124L150.765 102.679L149.421 102.266L150.558 98.6464L148.388 98.026L147.355 101.335L146.115 100.921L147.148 97.6124L144.875 96.8886L143.738 100.508L142.395 100.094L143.945 95.0273Z" fill="black"></path><path d="M145.805 111.058L139.191 107.852L139.811 106.508L146.425 109.713L147.665 107.232L148.905 107.852L145.908 114.16L144.668 113.539L145.805 111.058Z" fill="black"></path><path d="M135.678 114.055L143.015 118.708L142.188 119.949L134.852 115.296L135.678 114.055Z" fill="black"></path><path d="M129.168 122.636C130.925 120.568 133.611 120.258 135.678 121.912C137.641 123.567 137.848 126.359 136.091 128.427C135.368 129.254 134.541 129.771 133.715 130.081L133.095 128.84C133.818 128.53 134.645 128.117 135.058 127.496C136.298 126.049 136.091 124.291 134.645 123.153C133.198 122.016 131.545 122.119 130.305 123.567C129.788 124.187 129.478 125.015 129.271 125.842L128.031 125.325C128.031 124.497 128.445 123.463 129.168 122.636Z" fill="black"></path><path d="M116.561 133.909C118.834 132.254 121.521 132.771 122.968 134.839C124.518 136.907 124.001 139.699 121.728 141.25C120.798 141.871 119.868 142.181 118.938 142.284L118.628 140.94C119.454 140.837 120.281 140.63 120.901 140.113C122.451 138.975 122.658 137.321 121.624 135.77C120.591 134.322 118.834 133.909 117.284 135.046C116.664 135.46 116.044 136.287 115.734 137.011L114.598 136.287C115.011 135.46 115.631 134.529 116.561 133.909Z" fill="black"></path><path d="M110.566 137.836L114.493 145.591L113.149 146.212L109.843 139.697L106.432 141.455L105.812 140.214L110.566 137.836Z" fill="black"></path><path d="M101.886 141.766L104.883 149.934L103.54 150.451L100.543 142.283L101.886 141.766Z" fill="black"></path><path d="M88.8668 145.282L95.4802 149.728L94.2401 144.248L95.6868 143.938L97.5468 152.52L97.3401 152.623L90.8302 148.28L91.9668 153.657L90.5202 153.968L88.6602 145.282H88.8668Z" fill="black"></path><path d="M83.8021 146.004L84.5255 154.69L83.0788 154.793L82.3555 146.107L83.8021 146.004Z" fill="black"></path><path d="M72.9551 146.004C75.7451 146.107 77.5018 148.175 77.3984 150.76C77.2951 153.345 75.2284 155.207 72.4384 155C71.4051 154.896 70.3718 154.586 69.6484 154.069L70.2684 152.828C70.8884 153.242 71.8184 153.552 72.5418 153.656C74.4018 153.759 75.6418 152.518 75.7451 150.657C75.8484 148.796 74.7118 147.452 72.7484 147.452C72.0251 147.452 71.0951 147.658 70.3718 148.072L69.9584 146.831C70.7851 146.314 71.9218 146.004 72.9551 146.004Z" fill="black"></path><path d="M59.7265 143.938L60.3465 144.144L58.0731 152.623L57.4531 152.416L59.7265 143.938Z" fill="#2D2C2C"></path><path d="M48.6717 139.906H48.7751L51.3584 148.902L54.0451 142.181L54.6651 142.388L51.3584 150.557H51.1517L48.5684 141.664L45.8817 148.282L45.2617 148.075L48.6717 139.906Z" fill="#2D2C2C"></path><path d="M31.5156 139.903L35.029 134.837C35.5456 134.113 36.0623 133.699 36.6823 133.596C37.3023 133.492 37.9223 133.596 38.5423 134.01C39.1623 134.423 39.5756 134.94 39.7823 135.664L39.1623 135.871C38.9556 135.25 38.6456 134.837 38.129 134.527C37.7156 134.216 37.199 134.113 36.7856 134.216C36.3723 134.32 35.8556 134.733 35.5456 135.25L32.0323 140.214L31.5156 139.903Z" fill="#2D2C2C"></path><path d="M25.7314 127.497C26.4547 126.773 27.178 126.359 28.0047 126.359C28.8314 126.359 29.658 126.67 30.3814 127.393C31.1047 128.117 31.518 128.841 31.518 129.668C31.518 130.495 31.208 131.219 30.4847 132.046L26.6614 136.079L26.1447 135.666L29.968 131.633C30.588 131.012 30.898 130.392 30.7947 129.668C30.7947 129.048 30.4847 128.427 29.8647 127.91C29.2447 127.393 28.6247 127.083 28.0047 127.083C27.3847 127.083 26.7647 127.393 26.1447 128.014L22.3214 132.046L21.8047 131.529L25.7314 127.497Z" fill="#2D2C2C"></path><path d="M19.738 114.984L20.1513 115.501L14.6746 119.741L21.1846 119.017L21.288 119.12L18.6013 125.118L24.2846 121.085L24.698 121.602L17.4646 126.565L17.3613 126.462L20.4613 119.534L13.0213 120.465L12.918 120.361L19.738 114.984Z" fill="#2D2C2C"></path><path d="M14.9844 106.301L17.2577 110.644L9.50771 114.573L7.23438 110.23L7.75104 109.92L9.71437 113.746L12.711 112.195L10.9544 108.782L11.471 108.472L13.2277 111.884L16.3277 110.333L14.3644 106.508L14.9844 106.301Z" fill="#2D2C2C"></path><path d="M13.0188 101.438L13.2255 102.058L5.06214 105.16L4.85547 104.54L13.0188 101.438Z" fill="#2D2C2C"></path><path d="M10.0251 90.9961L10.2317 91.8233L7.33841 95.0288C7.44174 95.2356 7.54508 95.4424 7.54508 95.7526C7.64841 96.0628 7.64841 96.373 7.75174 96.7866L11.1617 95.9594L11.3684 96.5798L2.99841 98.6479C2.68841 97.924 2.48174 97.407 2.37841 96.89C2.17174 95.856 2.17174 95.0288 2.48174 94.305C2.79174 93.6845 3.30841 93.1675 4.13508 93.0641C4.75508 92.9607 5.27174 92.9607 5.78841 93.1675C6.30508 93.3743 6.71841 93.788 7.02841 94.4084L10.0251 90.9961ZM4.34174 93.6846C3.72174 93.788 3.30841 94.2016 3.10174 94.7186C2.89508 95.2356 2.79174 95.856 2.99841 96.6832C3.10174 97.0968 3.20508 97.5104 3.41174 97.924L7.23508 96.9934C7.23508 96.5798 7.13174 96.2696 7.02841 95.9594C6.82174 95.1322 6.51174 94.5118 5.99508 94.2016C5.47841 93.5811 4.96174 93.4777 4.34174 93.6846Z" fill="#2D2C2C"></path><path d="M8.68036 79.4141L8.7837 80.1379L6.20036 81.4821L6.51036 85.5148L9.30036 86.4454V87.1692L0.207031 84.0672V83.9638L8.68036 79.4141ZM5.58036 81.7923L1.44703 83.9638L5.89036 85.4114L5.58036 81.7923Z" fill="#2D2C2C"></path><path d="M9.19667 68.8665L9.09333 69.4869L4.96 69.1767L4.54667 74.14L8.68 74.4502L8.57667 75.0706L0 74.4502L0.103333 73.8298L4.03 74.14L4.44333 69.1767L0.516667 68.8665L0.62 68.2461L9.19667 68.8665Z" fill="#2D2C2C"></path><path d="M7.12813 58.4224C7.98417 58.4224 8.67812 57.728 8.67812 56.8713C8.67812 56.0147 7.98417 55.3203 7.12813 55.3203C6.27208 55.3203 5.57812 56.0147 5.57812 56.8713C5.57812 57.728 6.27208 58.4224 7.12813 58.4224Z" fill="black"></path><path d="M75.8068 96.542L78.5825 87.7275C82.6361 87.1978 86.3476 85.1804 88.9952 82.0676C91.6428 78.9548 93.0371 74.9693 92.9069 70.8862L92.1817 70.9083C92.3057 74.7517 91.015 78.5071 88.5539 81.4632C86.0928 84.4193 82.6323 86.3709 78.8278 86.9483L88.5711 56.006C88.6017 55.9279 88.624 55.8467 88.6375 55.7638C88.6607 55.6635 88.6846 55.5506 88.7136 55.4532C88.7294 55.395 88.7476 55.3353 88.7663 55.2803C88.8269 55.0907 88.8453 55.0262 88.819 54.9923C88.8155 54.9865 88.8105 54.9818 88.8046 54.9787C88.7987 54.9755 88.792 54.9739 88.7853 54.9741L75.9206 54.9609V54.9625C71.3571 54.9425 67.4346 56.9463 64.4349 60.1424C62.5015 62.2025 61.1309 64.725 60.4549 67.4674C59.7788 70.2097 59.8201 73.0798 60.5746 75.8016C61.3292 78.5234 62.7718 81.0055 64.7636 83.0093C66.7555 85.0131 69.2296 86.4712 71.9483 87.2434L70.4375 92.0192L70.4325 92.0379L75.1848 97.6571L75.2243 97.705H94.85V96.5015L75.8068 96.542ZM65.6691 82.8796C64.1616 81.4657 62.9476 79.7689 62.0964 77.8861C61.2452 76.0033 60.7735 73.9714 60.7081 71.9064C60.6427 69.8414 60.9851 67.7837 61.7155 65.851C62.4459 63.9182 63.5502 62.1481 64.9652 60.6418C66.3653 59.1099 68.0639 57.8802 69.9568 57.028C71.8497 56.1759 73.8969 55.7194 75.9727 55.6864L78.0931 55.773C79.0536 55.8441 80.3165 56.0979 80.8544 56.8958C81.166 57.3517 81.2082 57.9414 80.9861 58.6477C80.9521 58.753 80.9231 58.8533 80.8992 58.948L72.1669 86.5511C69.7369 85.8677 67.5078 84.6082 65.6691 82.8796Z" fill="#2D2C2C"></path></g><defs><clipPath id="clip0_1342_181"><rect width="155" height="155" fill="white"></rect></clipPath></defs></svg> 