<svg xmlns="http://www.w3.org/2000/svg" xmlns:xlink="http://www.w3.org/1999/xlink" width="500" zoomAndPan="magnify" viewBox="0 0 375 374.999991" height="500" preserveAspectRatio="xMidYMid meet" version="1.0"><defs><g/></defs><g fill="#2b1511" fill-opacity="1"><g transform="translate(87.841266, 221.257778)"><g><path d="M 87.859375 -0.515625 C 87.972656 -0.515625 88.085938 -0.457031 88.203125 -0.34375 C 88.316406 -0.226562 88.375 -0.113281 88.375 0 C 88.375 0.34375 88.203125 0.515625 87.859375 0.515625 L 77.515625 0.515625 C 77.066406 0.515625 76.84375 0.34375 76.84375 0 L 76.84375 -12.046875 C 76.84375 -12.265625 76.726562 -12.375 76.5 -12.375 C 74.800781 -12.375 73.5 -11.695312 72.59375 -10.34375 C 70.332031 -6.382812 67.191406 -3.300781 63.171875 -1.09375 C 59.160156 1.101562 54.894531 2.203125 50.375 2.203125 C 49.925781 2.203125 49.585938 2.203125 49.359375 2.203125 C 41.785156 2.085938 34.859375 0 28.578125 -4.0625 C 22.304688 -8.132812 17.300781 -13.503906 13.5625 -20.171875 C 9.832031 -26.847656 7.96875 -34.203125 7.96875 -42.234375 C 7.96875 -50.265625 9.832031 -57.613281 13.5625 -64.28125 C 17.300781 -70.957031 22.304688 -76.332031 28.578125 -80.40625 C 34.859375 -84.476562 41.785156 -86.566406 49.359375 -86.671875 C 49.585938 -86.671875 49.925781 -86.671875 50.375 -86.671875 C 54.675781 -86.671875 58.632812 -85.597656 62.25 -83.453125 C 65.875 -81.304688 68.757812 -78.453125 70.90625 -74.890625 C 73.050781 -71.328125 74.125 -67.34375 74.125 -62.9375 C 74.125 -56.144531 71.691406 -50.429688 66.828125 -45.796875 C 66.941406 -45.796875 66.941406 -45.796875 66.828125 -45.796875 C 64.679688 -43.984375 63.609375 -41.664062 63.609375 -38.84375 C 63.609375 -36.46875 64.457031 -34.429688 66.15625 -32.734375 C 67.851562 -31.035156 69.890625 -30.1875 72.265625 -30.1875 C 73.503906 -30.1875 74.578125 -30.609375 75.484375 -31.453125 C 76.390625 -32.304688 76.84375 -33.410156 76.84375 -34.765625 L 76.84375 -111.953125 C 76.84375 -113.421875 76.304688 -114.71875 75.234375 -115.84375 C 74.160156 -116.976562 72.832031 -117.546875 71.25 -117.546875 C 70.90625 -117.546875 70.734375 -117.71875 70.734375 -118.0625 C 70.617188 -118.394531 70.789062 -118.5625 71.25 -118.5625 L 77.34375 -119.578125 L 81.421875 -120.265625 C 81.648438 -120.378906 81.816406 -120.378906 81.921875 -120.265625 C 82.035156 -120.148438 82.09375 -119.976562 82.09375 -119.75 L 82.09375 -38.84375 C 82.09375 -35.332031 80.679688 -32.617188 77.859375 -30.703125 C 76.160156 -29.566406 74.296875 -29 72.265625 -29 C 69.546875 -29 67.222656 -29.957031 65.296875 -31.875 C 63.378906 -33.800781 62.421875 -36.125 62.421875 -38.84375 C 62.421875 -42.007812 63.664062 -44.609375 66.15625 -46.640625 C 70.675781 -51.054688 72.9375 -56.488281 72.9375 -62.9375 C 72.9375 -67.113281 71.914062 -70.898438 69.875 -74.296875 C 67.84375 -77.691406 65.101562 -80.429688 61.65625 -82.515625 C 58.207031 -84.609375 54.445312 -85.65625 50.375 -85.65625 L 50.203125 -85.65625 C 49.867188 -85.65625 49.585938 -85.597656 49.359375 -85.484375 C 42.910156 -85.378906 37 -83.347656 31.625 -79.390625 C 26.257812 -75.429688 21.992188 -70.195312 18.828125 -63.6875 C 15.660156 -57.1875 14.078125 -50.035156 14.078125 -42.234375 C 14.078125 -34.316406 15.628906 -27.132812 18.734375 -20.6875 C 21.847656 -14.25 26.085938 -9.050781 31.453125 -5.09375 C 36.828125 -1.132812 42.796875 0.957031 49.359375 1.1875 C 49.585938 1.1875 49.925781 1.1875 50.375 1.1875 C 54.675781 1.1875 58.75 0.113281 62.59375 -2.03125 C 66.4375 -4.1875 69.488281 -7.1875 71.75 -11.03125 C 72.882812 -12.71875 74.46875 -13.5625 76.5 -13.5625 C 76.84375 -13.5625 77.179688 -13.507812 77.515625 -13.40625 C 80.117188 -12.832031 81.644531 -11.304688 82.09375 -8.828125 C 82.09375 -8.484375 82.09375 -8.140625 82.09375 -7.796875 L 82.09375 -6.109375 C 82.09375 -4.640625 82.65625 -3.335938 83.78125 -2.203125 C 84.914062 -1.078125 86.273438 -0.515625 87.859375 -0.515625 Z M 87.859375 -0.515625 "/></g></g></g><g fill="#2b1511" fill-opacity="1"><g transform="translate(164.167414, 221.257778)"><g><path d="M 55.640625 -118.5625 C 63.890625 -118.5625 71.601562 -117.035156 78.78125 -113.984375 C 85.96875 -110.929688 92.300781 -106.660156 97.78125 -101.171875 C 103.269531 -95.691406 107.566406 -89.359375 110.671875 -82.171875 C 113.785156 -74.992188 115.34375 -67.28125 115.34375 -59.03125 C 115.226562 -51 113.703125 -43.421875 110.765625 -36.296875 C 107.828125 -29.171875 103.695312 -22.894531 98.375 -17.46875 C 93.0625 -12.039062 86.867188 -7.742188 79.796875 -4.578125 C 72.734375 -1.410156 65.1875 0.285156 57.15625 0.515625 C 57.050781 0.515625 57 0.515625 57 0.515625 L 7.796875 0.515625 C 7.460938 0.515625 7.296875 0.34375 7.296875 0 C 7.296875 -0.34375 7.460938 -0.515625 7.796875 -0.515625 C 10.054688 -0.515625 11.976562 -1.304688 13.5625 -2.890625 C 15.144531 -4.472656 15.9375 -6.394531 15.9375 -8.65625 L 15.9375 -109.40625 C 15.9375 -111.664062 15.144531 -113.585938 13.5625 -115.171875 C 11.976562 -116.753906 10.054688 -117.546875 7.796875 -117.546875 C 7.460938 -117.546875 7.296875 -117.71875 7.296875 -118.0625 C 7.296875 -118.394531 7.460938 -118.5625 7.796875 -118.5625 Z M 52.25 -0.515625 C 59.820312 -0.515625 66.914062 -2.039062 73.53125 -5.09375 C 80.144531 -8.144531 85.992188 -12.351562 91.078125 -17.71875 C 96.171875 -23.09375 100.128906 -29.3125 102.953125 -36.375 C 105.785156 -43.445312 107.203125 -51 107.203125 -59.03125 C 107.203125 -67.0625 105.785156 -74.609375 102.953125 -81.671875 C 100.128906 -88.742188 96.171875 -94.960938 91.078125 -100.328125 C 85.992188 -105.703125 80.144531 -109.914062 73.53125 -112.96875 C 66.914062 -116.019531 59.820312 -117.546875 52.25 -117.546875 L 31.046875 -117.546875 C 28.785156 -117.546875 26.863281 -116.753906 25.28125 -115.171875 C 23.695312 -113.585938 22.90625 -111.664062 22.90625 -109.40625 L 22.90625 -8.65625 C 22.90625 -6.394531 23.695312 -4.472656 25.28125 -2.890625 C 26.863281 -1.304688 28.785156 -0.515625 31.046875 -0.515625 Z M 52.25 -0.515625 "/></g></g></g><g fill="#2b1511" fill-opacity="1"><g transform="translate(105.348938, 259.269125)"><g><path d="M 1.75 -12.984375 L 5.984375 -12.984375 C 6.984375 -12.984375 7.898438 -12.820312 8.734375 -12.5 C 9.578125 -12.175781 10.304688 -11.722656 10.921875 -11.140625 C 11.535156 -10.566406 12.015625 -9.878906 12.359375 -9.078125 C 12.710938 -8.285156 12.890625 -7.425781 12.890625 -6.5 C 12.890625 -5.5625 12.710938 -4.695312 12.359375 -3.90625 C 12.015625 -3.113281 11.535156 -2.425781 10.921875 -1.84375 C 10.304688 -1.269531 9.578125 -0.816406 8.734375 -0.484375 C 7.898438 -0.160156 6.984375 0 5.984375 0 L 1.75 0 Z M 5.96875 -1.265625 C 6.757812 -1.265625 7.488281 -1.390625 8.15625 -1.640625 C 8.832031 -1.898438 9.410156 -2.265625 9.890625 -2.734375 C 10.378906 -3.203125 10.757812 -3.753906 11.03125 -4.390625 C 11.300781 -5.035156 11.4375 -5.738281 11.4375 -6.5 C 11.4375 -7.257812 11.300781 -7.957031 11.03125 -8.59375 C 10.757812 -9.238281 10.378906 -9.789062 9.890625 -10.25 C 9.410156 -10.71875 8.832031 -11.082031 8.15625 -11.34375 C 7.488281 -11.601562 6.757812 -11.734375 5.96875 -11.734375 L 3.109375 -11.734375 L 3.109375 -1.265625 Z M 5.96875 -1.265625 "/></g></g></g><g fill="#2b1511" fill-opacity="1"><g transform="translate(121.718591, 259.269125)"><g><path d="M 7.46875 0.1875 C 6.570312 0.1875 5.726562 0.015625 4.9375 -0.328125 C 4.15625 -0.679688 3.46875 -1.160156 2.875 -1.765625 C 2.289062 -2.367188 1.828125 -3.070312 1.484375 -3.875 C 1.140625 -4.6875 0.96875 -5.5625 0.96875 -6.5 C 0.96875 -7.414062 1.140625 -8.28125 1.484375 -9.09375 C 1.828125 -9.90625 2.289062 -10.613281 2.875 -11.21875 C 3.46875 -11.832031 4.15625 -12.3125 4.9375 -12.65625 C 5.726562 -13.007812 6.570312 -13.1875 7.46875 -13.1875 C 8.351562 -13.1875 9.191406 -13.007812 9.984375 -12.65625 C 10.773438 -12.3125 11.460938 -11.832031 12.046875 -11.21875 C 12.640625 -10.613281 13.109375 -9.90625 13.453125 -9.09375 C 13.796875 -8.289062 13.96875 -7.425781 13.96875 -6.5 C 13.96875 -5.582031 13.796875 -4.71875 13.453125 -3.90625 C 13.109375 -3.09375 12.640625 -2.382812 12.046875 -1.78125 C 11.460938 -1.175781 10.773438 -0.695312 9.984375 -0.34375 C 9.191406 0.0078125 8.351562 0.1875 7.46875 0.1875 Z M 7.46875 -1.140625 C 8.175781 -1.140625 8.835938 -1.273438 9.453125 -1.546875 C 10.078125 -1.816406 10.613281 -2.191406 11.0625 -2.671875 C 11.507812 -3.148438 11.859375 -3.71875 12.109375 -4.375 C 12.367188 -5.03125 12.5 -5.738281 12.5 -6.5 C 12.5 -7.257812 12.367188 -7.960938 12.109375 -8.609375 C 11.859375 -9.265625 11.507812 -9.832031 11.0625 -10.3125 C 10.613281 -10.789062 10.078125 -11.164062 9.453125 -11.4375 C 8.835938 -11.707031 8.175781 -11.84375 7.46875 -11.84375 C 6.738281 -11.84375 6.066406 -11.707031 5.453125 -11.4375 C 4.835938 -11.164062 4.304688 -10.789062 3.859375 -10.3125 C 3.421875 -9.832031 3.070312 -9.265625 2.8125 -8.609375 C 2.550781 -7.960938 2.421875 -7.257812 2.421875 -6.5 C 2.421875 -5.738281 2.550781 -5.03125 2.8125 -4.375 C 3.070312 -3.71875 3.421875 -3.148438 3.859375 -2.671875 C 4.304688 -2.191406 4.835938 -1.816406 5.453125 -1.546875 C 6.066406 -1.273438 6.738281 -1.140625 7.46875 -1.140625 Z M 7.46875 -1.140625 "/></g></g></g><g fill="#2b1511" fill-opacity="1"><g transform="translate(139.154937, 259.269125)"><g><path d="M 7.40625 0.1875 C 6.488281 0.1875 5.640625 0.0195312 4.859375 -0.3125 C 4.078125 -0.65625 3.394531 -1.117188 2.8125 -1.703125 C 2.238281 -2.296875 1.785156 -2.992188 1.453125 -3.796875 C 1.128906 -4.609375 0.96875 -5.484375 0.96875 -6.421875 C 0.96875 -7.378906 1.140625 -8.265625 1.484375 -9.078125 C 1.828125 -9.898438 2.289062 -10.613281 2.875 -11.21875 C 3.46875 -11.832031 4.15625 -12.3125 4.9375 -12.65625 C 5.726562 -13.007812 6.570312 -13.1875 7.46875 -13.1875 C 8.4375 -13.1875 9.335938 -12.984375 10.171875 -12.578125 C 11.015625 -12.171875 11.742188 -11.617188 12.359375 -10.921875 L 11.328125 -10.046875 C 10.816406 -10.628906 10.234375 -11.070312 9.578125 -11.375 C 8.921875 -11.6875 8.203125 -11.84375 7.421875 -11.84375 C 6.703125 -11.84375 6.035156 -11.707031 5.421875 -11.4375 C 4.816406 -11.175781 4.289062 -10.804688 3.84375 -10.328125 C 3.40625 -9.859375 3.054688 -9.296875 2.796875 -8.640625 C 2.546875 -7.992188 2.421875 -7.285156 2.421875 -6.515625 C 2.421875 -5.742188 2.546875 -5.023438 2.796875 -4.359375 C 3.054688 -3.703125 3.410156 -3.132812 3.859375 -2.65625 C 4.304688 -2.1875 4.84375 -1.816406 5.46875 -1.546875 C 6.09375 -1.273438 6.769531 -1.140625 7.5 -1.140625 C 8.3125 -1.140625 9.046875 -1.300781 9.703125 -1.625 C 10.367188 -1.945312 10.925781 -2.378906 11.375 -2.921875 L 12.359375 -2.09375 C 11.742188 -1.382812 11.015625 -0.828125 10.171875 -0.421875 C 9.335938 -0.015625 8.414062 0.1875 7.40625 0.1875 Z M 7.40625 0.1875 "/></g></g></g><g fill="#2b1511" fill-opacity="1"><g transform="translate(154.884572, 259.269125)"><g><path d="M 4.84375 -11.734375 L 0.578125 -11.734375 L 0.578125 -12.984375 L 10.46875 -12.984375 L 10.46875 -11.734375 L 6.203125 -11.734375 L 6.203125 0 L 4.84375 0 Z M 4.84375 -11.734375 "/></g></g></g><g fill="#2b1511" fill-opacity="1"><g transform="translate(168.44202, 259.269125)"><g><path d="M 7.46875 0.1875 C 6.570312 0.1875 5.726562 0.015625 4.9375 -0.328125 C 4.15625 -0.679688 3.46875 -1.160156 2.875 -1.765625 C 2.289062 -2.367188 1.828125 -3.070312 1.484375 -3.875 C 1.140625 -4.6875 0.96875 -5.5625 0.96875 -6.5 C 0.96875 -7.414062 1.140625 -8.28125 1.484375 -9.09375 C 1.828125 -9.90625 2.289062 -10.613281 2.875 -11.21875 C 3.46875 -11.832031 4.15625 -12.3125 4.9375 -12.65625 C 5.726562 -13.007812 6.570312 -13.1875 7.46875 -13.1875 C 8.351562 -13.1875 9.191406 -13.007812 9.984375 -12.65625 C 10.773438 -12.3125 11.460938 -11.832031 12.046875 -11.21875 C 12.640625 -10.613281 13.109375 -9.90625 13.453125 -9.09375 C 13.796875 -8.289062 13.96875 -7.425781 13.96875 -6.5 C 13.96875 -5.582031 13.796875 -4.71875 13.453125 -3.90625 C 13.109375 -3.09375 12.640625 -2.382812 12.046875 -1.78125 C 11.460938 -1.175781 10.773438 -0.695312 9.984375 -0.34375 C 9.191406 0.0078125 8.351562 0.1875 7.46875 0.1875 Z M 7.46875 -1.140625 C 8.175781 -1.140625 8.835938 -1.273438 9.453125 -1.546875 C 10.078125 -1.816406 10.613281 -2.191406 11.0625 -2.671875 C 11.507812 -3.148438 11.859375 -3.71875 12.109375 -4.375 C 12.367188 -5.03125 12.5 -5.738281 12.5 -6.5 C 12.5 -7.257812 12.367188 -7.960938 12.109375 -8.609375 C 11.859375 -9.265625 11.507812 -9.832031 11.0625 -10.3125 C 10.613281 -10.789062 10.078125 -11.164062 9.453125 -11.4375 C 8.835938 -11.707031 8.175781 -11.84375 7.46875 -11.84375 C 6.738281 -11.84375 6.066406 -11.707031 5.453125 -11.4375 C 4.835938 -11.164062 4.304688 -10.789062 3.859375 -10.3125 C 3.421875 -9.832031 3.070312 -9.265625 2.8125 -8.609375 C 2.550781 -7.960938 2.421875 -7.257812 2.421875 -6.5 C 2.421875 -5.738281 2.550781 -5.03125 2.8125 -4.375 C 3.070312 -3.71875 3.421875 -3.148438 3.859375 -2.671875 C 4.304688 -2.191406 4.835938 -1.816406 5.453125 -1.546875 C 6.066406 -1.273438 6.738281 -1.140625 7.46875 -1.140625 Z M 7.46875 -1.140625 "/></g></g></g><g fill="#2b1511" fill-opacity="1"><g transform="translate(185.878363, 259.269125)"><g><path d="M 1.75 -12.984375 L 4.84375 -12.984375 C 5.488281 -12.984375 6.085938 -12.890625 6.640625 -12.703125 C 7.191406 -12.515625 7.660156 -12.25 8.046875 -11.90625 C 8.441406 -11.570312 8.75 -11.171875 8.96875 -10.703125 C 9.195312 -10.234375 9.3125 -9.722656 9.3125 -9.171875 C 9.3125 -8.722656 9.238281 -8.300781 9.09375 -7.90625 C 8.945312 -7.507812 8.742188 -7.148438 8.484375 -6.828125 C 8.234375 -6.515625 7.925781 -6.242188 7.5625 -6.015625 C 7.195312 -5.796875 6.800781 -5.625 6.375 -5.5 L 10.078125 0 L 8.453125 0 L 4.84375 -5.359375 L 3.109375 -5.359375 L 3.109375 0 L 1.75 0 Z M 4.84375 -6.609375 C 5.78125 -6.609375 6.53125 -6.84375 7.09375 -7.3125 C 7.664062 -7.78125 7.953125 -8.40625 7.953125 -9.1875 C 7.953125 -9.96875 7.664062 -10.585938 7.09375 -11.046875 C 6.53125 -11.503906 5.78125 -11.734375 4.84375 -11.734375 L 3.109375 -11.734375 L 3.109375 -6.609375 Z M 4.84375 -6.609375 "/></g></g></g><g fill="#2b1511" fill-opacity="1"><g transform="translate(199.241868, 259.269125)"><g/></g></g><g fill="#2b1511" fill-opacity="1"><g transform="translate(206.011231, 259.269125)"><g><path d="M 1.75 -12.984375 L 5.984375 -12.984375 C 6.984375 -12.984375 7.898438 -12.820312 8.734375 -12.5 C 9.578125 -12.175781 10.304688 -11.722656 10.921875 -11.140625 C 11.535156 -10.566406 12.015625 -9.878906 12.359375 -9.078125 C 12.710938 -8.285156 12.890625 -7.425781 12.890625 -6.5 C 12.890625 -5.5625 12.710938 -4.695312 12.359375 -3.90625 C 12.015625 -3.113281 11.535156 -2.425781 10.921875 -1.84375 C 10.304688 -1.269531 9.578125 -0.816406 8.734375 -0.484375 C 7.898438 -0.160156 6.984375 0 5.984375 0 L 1.75 0 Z M 5.96875 -1.265625 C 6.757812 -1.265625 7.488281 -1.390625 8.15625 -1.640625 C 8.832031 -1.898438 9.410156 -2.265625 9.890625 -2.734375 C 10.378906 -3.203125 10.757812 -3.753906 11.03125 -4.390625 C 11.300781 -5.035156 11.4375 -5.738281 11.4375 -6.5 C 11.4375 -7.257812 11.300781 -7.957031 11.03125 -8.59375 C 10.757812 -9.238281 10.378906 -9.789062 9.890625 -10.25 C 9.410156 -10.71875 8.832031 -11.082031 8.15625 -11.34375 C 7.488281 -11.601562 6.757812 -11.734375 5.96875 -11.734375 L 3.109375 -11.734375 L 3.109375 -1.265625 Z M 5.96875 -1.265625 "/></g></g></g><g fill="#2b1511" fill-opacity="1"><g transform="translate(222.380882, 259.269125)"><g><path d="M 6.328125 0.1875 C 5.628906 0.1875 4.988281 0.0546875 4.40625 -0.203125 C 3.832031 -0.460938 3.34375 -0.832031 2.9375 -1.3125 C 2.53125 -1.789062 2.210938 -2.363281 1.984375 -3.03125 C 1.753906 -3.707031 1.640625 -4.457031 1.640625 -5.28125 L 1.640625 -12.984375 L 3 -12.984375 L 3 -5.390625 C 3 -4.742188 3.078125 -4.148438 3.234375 -3.609375 C 3.398438 -3.078125 3.628906 -2.625 3.921875 -2.25 C 4.222656 -1.875 4.582031 -1.582031 5 -1.375 C 5.425781 -1.164062 5.898438 -1.0625 6.421875 -1.0625 C 6.929688 -1.0625 7.394531 -1.164062 7.8125 -1.375 C 8.238281 -1.582031 8.597656 -1.875 8.890625 -2.25 C 9.191406 -2.625 9.421875 -3.078125 9.578125 -3.609375 C 9.742188 -4.148438 9.828125 -4.742188 9.828125 -5.390625 L 9.828125 -12.984375 L 11.15625 -12.984375 L 11.15625 -5.28125 C 11.15625 -4.457031 11.035156 -3.707031 10.796875 -3.03125 C 10.554688 -2.363281 10.222656 -1.789062 9.796875 -1.3125 C 9.367188 -0.832031 8.859375 -0.460938 8.265625 -0.203125 C 7.671875 0.0546875 7.023438 0.1875 6.328125 0.1875 Z M 6.328125 0.1875 "/></g></g></g><g fill="#2b1511" fill-opacity="1"><g transform="translate(237.683829, 259.269125)"><g><path d="M 1.75 -12.984375 L 4.65625 -12.984375 C 5.25 -12.984375 5.796875 -12.898438 6.296875 -12.734375 C 6.804688 -12.566406 7.238281 -12.332031 7.59375 -12.03125 C 7.957031 -11.726562 8.242188 -11.367188 8.453125 -10.953125 C 8.660156 -10.535156 8.765625 -10.082031 8.765625 -9.59375 C 8.765625 -9 8.613281 -8.46875 8.3125 -8 C 8.019531 -7.539062 7.601562 -7.160156 7.0625 -6.859375 C 7.8125 -6.585938 8.40625 -6.171875 8.84375 -5.609375 C 9.28125 -5.046875 9.5 -4.390625 9.5 -3.640625 C 9.5 -3.109375 9.390625 -2.625 9.171875 -2.1875 C 8.953125 -1.75 8.644531 -1.363281 8.25 -1.03125 C 7.851562 -0.707031 7.378906 -0.453125 6.828125 -0.265625 C 6.285156 -0.0859375 5.691406 0 5.046875 0 L 1.75 0 Z M 5.046875 -1.265625 C 5.972656 -1.265625 6.71875 -1.484375 7.28125 -1.921875 C 7.851562 -2.367188 8.140625 -2.96875 8.140625 -3.71875 C 8.140625 -4.457031 7.851562 -5.050781 7.28125 -5.5 C 6.71875 -5.945312 5.972656 -6.171875 5.046875 -6.171875 L 3.109375 -6.171875 L 3.109375 -1.265625 Z M 4.65625 -7.375 C 5.5 -7.375 6.164062 -7.566406 6.65625 -7.953125 C 7.15625 -8.335938 7.40625 -8.859375 7.40625 -9.515625 C 7.40625 -10.191406 7.148438 -10.726562 6.640625 -11.125 C 6.140625 -11.53125 5.476562 -11.734375 4.65625 -11.734375 L 3.109375 -11.734375 L 3.109375 -7.375 Z M 4.65625 -7.375 "/></g></g></g><g fill="#2b1511" fill-opacity="1"><g transform="translate(250.85338, 259.269125)"><g><path d="M 5.53125 -13.375 L 5.921875 -13.375 L 10.859375 0 L 9.359375 0 L 8.140625 -3.40625 L 3.21875 -3.40625 L 2 0 L 0.578125 0 Z M 7.703125 -4.671875 L 5.6875 -10.296875 L 3.671875 -4.671875 Z M 7.703125 -4.671875 "/></g></g></g><g fill="#2b1511" fill-opacity="1"><g transform="translate(264.798714, 259.269125)"><g><path d="M 1.75 -12.984375 L 3.109375 -12.984375 L 3.109375 0 L 1.75 0 Z M 1.75 -12.984375 "/></g></g></g></svg>